<?xml version="1.0" encoding="UTF-8"?>
<svg xmlns="http://www.w3.org/2000/svg" width="197" height="250.16" viewBox="0 0 197 250.15674">
  <path d="M.9125 1.075v77.06h9.81075v94.0375H.9125v77.06H158l37.9075-34V35.0575L158 1.07125H.9125zm89.56375 77.06h25.6825v94.03375h-25.6825V78.135z"/>
  <path fill="#fff" d="M5.825 5.9875V73.22h9.807375v103.86125H5.825v67.2325h150.3l34.87375-31.27875V37.2475L156.125 5.9825H5.825zm115.2425 171.1h-35.51V73.2225h35.51v103.865z"/>
  <path d="M19.3875 19.55v40.11h9.807375v130.9875H19.3875v40.11h131.55l26.5025-23.77125v-163.675L150.9375 19.55h-131.55zm109.94625 40.11c1.29825 1.160325 4.17725 3.743375 5.297125 4.749v121.6125c-1.907 1.67825-5.24675 4.614375-5.250125 4.621125H71.9995v-130.9875h57.33375z"/>
  <path fill="#00693e" d="M149.05 24.4625H24.3025v30.28h9.807375V195.555H24.3025v30.28H149.05l23.46875-21.05125V45.49625L149.05 24.455zm-81.96625 171.1V54.75H131.215c1.294875 1.1569625 6.84425 6.141375 8.330875 7.47325v126.025c-1.50675 1.3285-7.02925 6.185125-8.314 7.315125h-64.1475z"/>
</svg>